<svg xmlns="http://www.w3.org/2000/svg" width="18" height="17" viewBox="0 0 18 17">
  <path id="nav_icon" d="M11.5,17A2.5,2.5,0,0,1,9,14.5v-2A2.5,2.5,0,0,1,11.5,10h4A2.5,2.5,0,0,1,18,12.5v2A2.5,2.5,0,0,1,15.5,17Zm-9,0A2.5,2.5,0,0,1,0,14.5v-2A2.5,2.5,0,0,1,2.5,10h2A2.5,2.5,0,0,1,7,12.5v2A2.5,2.5,0,0,1,4.5,17Zm11-10A2.5,2.5,0,0,1,11,4.5v-2A2.5,2.5,0,0,1,13.5,0h2A2.5,2.5,0,0,1,18,2.5v2A2.5,2.5,0,0,1,15.5,7ZM2.5,7A2.5,2.5,0,0,1,0,4.5v-2A2.5,2.5,0,0,1,2.5,0h4A2.5,2.5,0,0,1,9,2.5v2A2.5,2.5,0,0,1,6.5,7Z" fill="#646379"/>
</svg>
