<svg xmlns="http://www.w3.org/2000/svg" width="15.856" height="16" viewBox="0 0 15.856 16">
  <g id="Profile" opacity="0.5">
    <g id="User">
      <path id="Fill_1" data-name="Fill 1" d="M3.892,7.784A3.876,3.876,0,0,1,0,3.892,3.876,3.876,0,0,1,3.892,0,3.876,3.876,0,0,1,7.784,3.892,3.876,3.876,0,0,1,3.892,7.784Zm0-6.342a2.424,2.424,0,0,0-2.45,2.45,2.424,2.424,0,0,0,2.45,2.451A2.425,2.425,0,0,0,6.342,3.892,2.424,2.424,0,0,0,3.892,1.442Z" transform="translate(4.036)" fill="#646379"/>
      <path id="Fill_3" data-name="Fill 3" d="M9.514,0H6.342A6.352,6.352,0,0,0,0,6.342a.681.681,0,0,0,.721.721.681.681,0,0,0,.721-.721,4.906,4.906,0,0,1,4.9-4.9H9.514a4.906,4.906,0,0,1,4.9,4.9.721.721,0,0,0,1.441,0A6.4,6.4,0,0,0,9.514,0" transform="translate(0 8.937)" fill="#646379"/>
    </g>
  </g>
</svg>
